HIERARCHY
ROOT pelvis
{
  OFFSET 0 100 0
  CHANNELS 6 Xposition Yposition Zposition Zrotation Xrotation Yrotation
  JOINT pelvis_right_femur
  {
    OFFSET -10.78128 -3.44521 -0.5502486
    CHANNELS 3 Zrotation Xrotation Yrotation
    JOINT right_femur_tibia
    {
      OFFSET -0.8047443 -44.0398 -0.1307829
      CHANNELS 3 Zrotation Xrotation Yrotation
      JOINT right_tibia_foot
      {
        OFFSET 3.006224 -47.83518 -5
        CHANNELS 3 Zrotation Xrotation Yrotation
        End Site
        {
          OFFSET 0 -5 15
        }
      }
    }
  }
  JOINT pelvis_left_femur
  {
    OFFSET 10.78128 -3.44521 -0.5502486
    CHANNELS 3 Zrotation Xrotation Yrotation
    JOINT left_femur_tibia
    {
      OFFSET 0.8047443 -44.0398 -0.1307829
      CHANNELS 3 Zrotation Xrotation Yrotation
      JOINT left_tibia_foot
      {
        OFFSET -4.370144 -48.10324 -4.275266
        CHANNELS 3 Zrotation Xrotation Yrotation
        End Site
        {
          OFFSET 0 -5 15
        }
      }
    }
  }
  JOINT pelvis_spine1
  {
    OFFSET 0 6.468898 -3.129235
    CHANNELS 3 Zrotation Xrotation Yrotation
    JOINT spine1
    {
      OFFSET 0 23.15396 4.99043
      CHANNELS 3 Zrotation Xrotation Yrotation
      JOINT spine2
      {
        OFFSET 0 20.79997 -5.064912
        CHANNELS 3 Zrotation Xrotation Yrotation
        JOINT neck
        {
          OFFSET 0 14.38658 9.616178
          CHANNELS 3 Zrotation Xrotation Yrotation
          End Site
          {
            OFFSET 0 20 0
          }
        }
      }
      JOINT right_manubrium
      {
        OFFSET -5.722621 16.35077 3.967754
        CHANNELS 3 Zrotation Xrotation Yrotation
        JOINT right_clavicle
        {
          OFFSET -13.16364 1.694482 -4.693211
          CHANNELS 3 Zrotation Xrotation Yrotation
          JOINT right_humerus
          {
            OFFSET -28.5034 -0.3100689 -2.792744
            CHANNELS 3 Zrotation Xrotation Yrotation
            JOINT right_radius
            {
              OFFSET -25.15693 0.02248979 -1.271978
              CHANNELS 3 Zrotation Xrotation Yrotation
              End Site
              {
                OFFSET -15 0 0
              }
            }
          }
        }
      }
      JOINT left_manubrium
      {
        OFFSET 5.722621 16.35077 3.967754
        CHANNELS 3 Zrotation Xrotation Yrotation
        JOINT left_clavicle
        {
          OFFSET 13.16364 1.694482 -4.693211
          CHANNELS 3 Zrotation Xrotation Yrotation
          JOINT left_humerus
          {
            OFFSET 29.39168 -1.063119 -2.237045
            CHANNELS 3 Zrotation Xrotation Yrotation
            JOINT left_radius
            {
              OFFSET 24.59957 -0.9528479 0.9047498
              CHANNELS 3 Zrotation Xrotation Yrotation
              End Site
              {
                OFFSET 15 -0 -0
              }
            }
          }
        }
      }
    }
  }
}
MOTION
Frames: 13
Frame Time: 0.0416666666667
-157.301 104.309 460.1494 -11.04669 -7.113477 -60.94304 5.658602 4.800608 -3.429086 -0 9.490176 -0 -13.9623 -2.809858 -1.457165 -0.4105484 -4.963284 -3.42949 -0 26.72337 -0 6.011868 -5.489738 17.1871 -0.2803114 -0.7191239 6.827285 0.1776508 14.63834 -5.696684 0.4178824 22.16214 4.355087 2.910423 -19.22697 4.382553 -1.671036 -25.95805 12.89363 90.41283 25.03401 -11.87786 -0 0 19.73168 -21.86513 9.406323 9.736252 2.692037 -23.1011 -8.327874 -91.52142 9.63424 29.01401 0 0 -6.745755 12.70496 13.39265 -4.803625
-162.2218 104.3074 463.5745 -11.154 -6.942706 -61.82001 5.658602 4.800608 -3.429086 -0 9.490176 -0 -13.9623 -2.809858 -1.457165 -0.4105484 -4.963284 -3.42949 -0 26.72337 -0 6.011868 -5.489738 17.1871 -0.2803114 -0.7191239 6.827285 0.1776508 14.63834 -5.696684 0.4178824 22.16214 4.355087 2.910423 -19.22697 4.382553 -1.671036 -25.95805 12.89363 90.41283 25.03401 -11.87786 -0 0 19.73168 -21.86513 9.406323 9.736252 2.692037 -23.1011 -8.327874 -91.52142 9.63424 29.01401 0 0 -6.745755 12.70496 13.39265 -4.803625
-167.195 104.3058 466.9231 -11.25862 -6.770326 -62.69634 5.658602 4.800608 -3.429086 -0 9.490176 -0 -13.9623 -2.809858 -1.457165 -0.4105484 -4.963284 -3.42949 -0 26.72337 -0 6.011868 -5.489738 17.1871 -0.2803114 -0.7191239 6.827285 0.1776508 14.63834 -5.696684 0.4178824 22.16214 4.355087 2.910423 -19.22697 4.382553 -1.671036 -25.95805 12.89363 90.41283 25.03401 -11.87786 -0 0 19.73168 -21.86513 9.406323 9.736252 2.692037 -23.1011 -8.327874 -91.52142 9.63424 29.01401 0 0 -6.745755 12.70496 13.39265 -4.803625
-172.2194 104.3042 470.1942 -11.36054 -6.596378 -63.57205 5.658602 4.800608 -3.429086 -0 9.490176 -0 -13.9623 -2.809858 -1.457165 -0.4105484 -4.963284 -3.42949 -0 26.72337 -0 6.011868 -5.489738 17.1871 -0.2803114 -0.7191239 6.827285 0.1776508 14.63834 -5.696684 0.4178824 22.16214 4.355087 2.910423 -19.22697 4.382553 -1.671036 -25.95805 12.89363 90.41283 25.03401 -11.87786 -0 0 19.73168 -21.86513 9.406323 9.736252 2.692037 -23.1011 -8.327874 -91.52142 9.63424 29.01401 0 0 -6.745755 12.70496 13.39265 -4.803625
-177.2939 104.3026 473.3872 -11.45973 -6.420903 -64.44713 5.658602 4.800608 -3.429086 -0 9.490176 -0 -13.9623 -2.809858 -1.457165 -0.4105484 -4.963284 -3.42949 -0 26.72337 -0 6.011868 -5.489738 17.1871 -0.2803114 -0.7191239 6.827285 0.1776508 14.63834 -5.696684 0.4178824 22.16214 4.355087 2.910423 -19.22697 4.382553 -1.671036 -25.95805 12.89363 90.41283 25.03401 -11.87786 -0 0 19.73168 -21.86513 9.406323 9.736252 2.692037 -23.1011 -8.327874 -91.52142 9.63424 29.01401 0 0 -6.745755 12.70496 13.39265 -4.803625
-182.4171 104.301 476.5012 -11.55619 -6.243945 -65.32161 5.658602 4.800608 -3.429086 -0 9.490176 -0 -13.9623 -2.809858 -1.457165 -0.4105484 -4.963284 -3.42949 -0 26.72337 -0 6.011868 -5.489738 17.1871 -0.2803114 -0.7191239 6.827285 0.1776508 14.63834 -5.696684 0.4178824 22.16214 4.355087 2.910423 -19.22697 4.382553 -1.671036 -25.95805 12.89363 90.41283 25.03401 -11.87786 -0 0 19.73168 -21.86513 9.406323 9.736252 2.692037 -23.1011 -8.327874 -91.52142 9.63424 29.01401 0 0 -6.745755 12.70496 13.39265 -4.803625
-187.588 104.2994 479.5356 -11.64988 -6.065544 -66.1955 5.658602 4.800608 -3.429086 -0 9.490176 -0 -13.9623 -2.809858 -1.457165 -0.4105484 -4.963284 -3.42949 -0 26.72337 -0 6.011868 -5.489738 17.1871 -0.2803114 -0.7191239 6.827285 0.1776508 14.63834 -5.696684 0.4178824 22.16214 4.355087 2.910423 -19.22697 4.382553 -1.671036 -25.95805 12.89363 90.41283 25.03401 -11.87786 -0 0 19.73168 -21.86513 9.406323 9.736252 2.692037 -23.1011 -8.327874 -91.52142 9.63424 29.01401 0 0 -6.745755 12.70496 13.39265 -4.803625
-192.8053 104.2978 482.4895 -11.7408 -5.885744 -67.0688 5.658602 4.800608 -3.429086 -0 9.490176 -0 -13.9623 -2.809858 -1.457165 -0.4105484 -4.963284 -3.42949 -0 26.72337 -0 6.011868 -5.489738 17.1871 -0.2803114 -0.7191239 6.827285 0.1776508 14.63834 -5.696684 0.4178824 22.16214 4.355087 2.910423 -19.22697 4.382553 -1.671036 -25.95805 12.89363 90.41283 25.03401 -11.87786 -0 0 19.73168 -21.86513 9.406323 9.736252 2.692037 -23.1011 -8.327874 -91.52142 9.63424 29.01401 0 0 -6.745755 12.70496 13.39265 -4.803625
-198.0676 104.2962 485.3624 -11.82892 -5.704587 -67.94154 5.658602 4.800608 -3.429086 -0 9.490176 -0 -13.9623 -2.809858 -1.457165 -0.4105484 -4.963284 -3.42949 -0 26.72337 -0 6.011868 -5.489738 17.1871 -0.2803114 -0.7191239 6.827285 0.1776508 14.63834 -5.696684 0.4178824 22.16214 4.355087 2.910423 -19.22697 4.382553 -1.671036 -25.95805 12.89363 90.41283 25.03401 -11.87786 -0 0 19.73168 -21.86513 9.406323 9.736252 2.692037 -23.1011 -8.327874 -91.52142 9.63424 29.01401 0 0 -6.745755 12.70496 13.39265 -4.803625
-203.3738 104.2946 488.1534 -11.91424 -5.522116 -68.81373 5.658602 4.800608 -3.429086 -0 9.490176 -0 -13.9623 -2.809858 -1.457165 -0.4105484 -4.963284 -3.42949 -0 26.72337 -0 6.011868 -5.489738 17.1871 -0.2803114 -0.7191239 6.827285 0.1776508 14.63834 -5.696684 0.4178824 22.16214 4.355087 2.910423 -19.22697 4.382553 -1.671036 -25.95805 12.89363 90.41283 25.03401 -11.87786 -0 0 19.73168 -21.86513 9.406323 9.736252 2.692037 -23.1011 -8.327874 -91.52142 9.63424 29.01401 0 0 -6.745755 12.70496 13.39265 -4.803625
-208.7225 104.293 490.8619 -11.99673 -5.338374 -69.68537 5.658602 4.800608 -3.429086 -0 9.490176 -0 -13.9623 -2.809858 -1.457165 -0.4105484 -4.963284 -3.42949 -0 26.72337 -0 6.011868 -5.489738 17.1871 -0.2803114 -0.7191239 6.827285 0.1776508 14.63834 -5.696684 0.4178824 22.16214 4.355087 2.910423 -19.22697 4.382553 -1.671036 -25.95805 12.89363 90.41283 25.03401 -11.87786 -0 0 19.73168 -21.86513 9.406323 9.736252 2.692037 -23.1011 -8.327874 -91.52142 9.63424 29.01401 0 0 -6.745755 12.70496 13.39265 -4.803625
-214.1125 104.2914 493.4874 -12.07638 -5.153405 -70.5565 5.658602 4.800608 -3.429086 -0 9.490176 -0 -13.9623 -2.809858 -1.457165 -0.4105484 -4.963284 -3.42949 -0 26.72337 -0 6.011868 -5.489738 17.1871 -0.2803114 -0.7191239 6.827285 0.1776508 14.63834 -5.696684 0.4178824 22.16214 4.355087 2.910423 -19.22697 4.382553 -1.671036 -25.95805 12.89363 90.41283 25.03401 -11.87786 -0 0 19.73168 -21.86513 9.406323 9.736252 2.692037 -23.1011 -8.327874 -91.52142 9.63424 29.01401 0 0 -6.745755 12.70496 13.39265 -4.803625
-219.5426 104.2898 496.029 -12.15317 -4.967251 -71.42711 5.658602 4.800608 -3.429086 -0 9.490176 -0 -13.9623 -2.809858 -1.457165 -0.4105484 -4.963284 -3.42949 -0 26.72337 -0 6.011868 -5.489738 17.1871 -0.2803114 -0.7191239 6.827285 0.1776508 14.63834 -5.696684 0.4178824 22.16214 4.355087 2.910423 -19.22697 4.382553 -1.671036 -25.95805 12.89363 90.41283 25.03401 -11.87786 -0 0 19.73168 -21.86513 9.406323 9.736252 2.692037 -23.1011 -8.327874 -91.52142 9.63424 29.01401 0 0 -6.745755 12.70496 13.39265 -4.803625
